#!OML:ASF E:\Mandelcareful walks\Project 1\Capture day 1\Session 1\Subject1.ASF
:FULLY-SPECIFIED
:DEGREES
969
root 41.0451 13.7535 -0.556852 3.20447 120.836 -16.6953
lowerback 39.0366 0.906764 2.23125
upperback 11.2453 4.0962 0.111589
thorax -6.38185 2.80137 -2.68215
lowerneck -28.0572 -6.19212 -4.92364
upperneck 45.2645 -2.7287 -0.939068
head 26.0848 -1.18047 -0.053686
rclavicle -5.88403e-014 3.65764e-014
rhumerus 11.0942 40.813 -99.6572
rradius 23.6735
rwrist -13.3093
rhand -24.3852 -38.9694
rfingers 7.12502
rthumb 2.1053 -428.939
lclavicle -5.88403e-014 3.65764e-014
lhumerus -21.0998 -29 85.5418
lradius 56.1639
lwrist 45.7981
lhand -13.1037 -7.60092
lfingers 7.12502
lthumb 12.9932 21.9745
rfemur -68.6276 -13.6538 15.1526
rtibia 82.4075
rfoot -27.9065 -9.14774
rtoes -2.14291
lfemur -34.8037 9.11129 -8.82871
ltibia 65.9642
lfoot -32.9883 26.1057
ltoes -21.8969
970
root 41.0227 13.7406 -0.561157 0.489646 120.623 -19.5524
lowerback 39.1443 1.26277 0.912025
upperback 11.2636 4.02177 -0.157236
thorax -6.44603 2.76124 -2.26171
lowerneck -27.7634 -6.2564 -5.01913
upperneck 45.341 -2.7615 -0.907077
head 26.0462 -1.19684 -0.0165079
rclavicle 1.00187e-013 -4.45278e-014
rhumerus 11.0767 39.8984 -99.6448
rradius 23.6775
rwrist -13.8881
rhand -23.6965 -38.6399
rfingers 7.12502
rthumb 2.77049 -428.602
lclavicle 1.00187e-013 -4.45278e-014
lhumerus -20.8038 -28.2749 84.9431
lradius 56.7691
lwrist 43.1333
lhand -13.8725 -7.54492
lfingers 7.12502
lthumb 12.252 22.0762
rfemur -68.7222 -13.8822 13.5227
rtibia 82.5987
rfoot -27.7078 -8.78216
rtoes -2.48528
lfemur -34.4663 9.06061 -10.4699
ltibia 65.946
lfoot -33.2288 26.196
ltoes -21.3386
971
root 41.0134 13.747 -0.565098 1.16911 120.829 -18.8351
lowerback 39.0105 1.07996 1.41656
upperback 11.2266 3.98384 -0.0543163
thorax -6.42876 2.7424 -2.39555
lowerneck -27.628 -6.33519 -4.99465
upperneck 45.4066 -2.89177 -0.891737
head 26.0627 -1.22738 -0.0463111
rclavicle -1.25632e-013 -1.17681e-013
rhumerus 11.1419 39.0364 -99.6623
rradius 23.5125
rwrist -14.5065
rhand -24.1249 -38.1321
rfingers 7.12502
rthumb 2.35673 -428.099
lclavicle -1.25632e-013 -1.17681e-013
lhumerus -20.5913 -27.5019 84.4684
lradius 57.3524
lwrist 40.2201
lhand -15.3769 -9.43654
lfingers 7.12502
lthumb 10.8012 20.2657
rfemur -68.6819 -14.0504 13.8932
rtibia 82.5455
rfoot -27.7557 -8.86797
rtoes -2.4642
lfemur -34.6918 9.04464 -10.1079
ltibia 65.9868
lfoot -33.1053 26.0264
ltoes -21.6129
972
root 40.998 13.7482 -0.570349 1.32352 120.79 -18.706
lowerback 38.9396 1.04905 1.63999
upperback 11.1832 4.01287 -0.0638735
thorax -6.44137 2.75295 -2.53083
lowerneck -27.4622 -6.43855 -4.91527
upperneck 45.4271 -3.08024 -0.938285
head 26.0058 -1.27625 -0.141097
rclavicle -2.38542e-014 1.39944e-013
rhumerus 11.2037 37.9977 -99.7577
rradius 23.192
rwrist -14.5325
rhand -24.582 -37.3779
rfingers 7.12502
rthumb 1.91524 -427.349
lclavicle -2.38542e-014 1.39944e-013
lhumerus -20.4594 -27.0491 84.0464
lradius 58.0686
lwrist 37.3105
lhand -17.3112 -10.7354
lfingers 7.12502
lthumb 8.93507 19.0554
rfemur -68.7885 -14.0848 13.9776
rtibia 82.5099
rfoot -27.6507 -8.8708
rtoes -2.00685
lfemur -34.8285 9.17755 -10.0678
ltibia 66.0183
lfoot -32.9917 25.9242
ltoes -21.8512
973
root 40.986 13.7511 -0.574808 1.25703 120.653 -18.6804
lowerback 39.0238 1.04842 1.69908
upperback 11.1651 4.02986 -0.103114
thorax -6.48194 2.76105 -2.61312
lowerneck -27.267 -6.49783 -4.80999
upperneck 45.4065 -3.24856 -0.955473
head 25.8844 -1.31495 -0.216919
rclavicle 7.95139e-015 7.31528e-014
rhumerus 11.4249 37.0588 -99.854
rradius 22.7527
rwrist -13.6056
rhand -24.2829 -37.0093
rfingers 7.12502
rthumb 2.20413 -426.978
lclavicle 7.95139e-015 7.31528e-014
lhumerus -20.3007 -26.8355 83.4741
lradius 58.6933
lwrist 34.3678
lhand -19.3528 -11.9914
lfingers 7.12502
lthumb 6.96458 17.874
rfemur -68.7238 -13.9916 13.9766
rtibia 82.4187
rfoot -27.5414 -8.85981
rtoes -1.64252
lfemur -34.7202 9.39663 -10.0595
ltibia 66.0393
lfoot -32.8027 25.9751
ltoes -21.6219
974
root 40.9789 13.7598 -0.581057 1.49845 120.588 -18.2698
lowerback 39.0762 0.948976 1.9222
upperback 11.2109 4.0028 -0.112632
thorax -6.43762 2.7573 -2.72783
lowerneck -27.1201 -6.5474 -4.66674
upperneck 45.3387 -3.44869 -0.967862
head 25.7293 -1.36234 -0.308542
rclavicle -2.06736e-014 0
rhumerus 11.9175 36.5107 -99.789
rradius 22.2752
rwrist -12.3134
rhand -24.2449 -37.297
rfingers 7.12502
rthumb 2.24081 -427.265
lclavicle -2.06736e-014 0
lhumerus -20.1563 -26.7546 82.8719
lradius 59.5771
lwrist 32.1325
lhand -22.272 -13.667
lfingers 7.12502
lthumb 4.14613 16.2724
rfemur -68.516 -13.9026 14.1401
rtibia 82.3162
rfoot -27.5797 -8.86759
rtoes -1.66917
lfemur -34.5865 9.54306 -9.84371
ltibia 66.0437
lfoot -32.7341 25.9776
ltoes -21.4377
